<?xml version="1.0" standalone="no"?>
<!DOCTYPE svg PUBLIC "-//W3C//DTD SVG 20010904//EN"
 "http://www.w3.org/TR/2001/REC-SVG-20010904/DTD/svg10.dtd">
<svg version="1.0" xmlns="http://www.w3.org/2000/svg"
 width="2000.000000pt" height="1040.000000pt" viewBox="0 0 2000.000000 1040.000000"
 preserveAspectRatio="xMidYMid meet">

<g transform="translate(0.000000,1040.000000) scale(0.100000,-0.100000)"
fill="#000000" stroke="none">
<path d="M12875 10390 c-115 -24 -203 -79 -258 -163 -133 -201 -94 -434 121
-715 368 -482 405 -539 448 -702 29 -111 156 -476 221 -635 51 -126 154 -328
220 -430 25 -38 71 -96 104 -130 77 -80 82 -96 53 -160 -13 -28 -31 -82 -40
-120 -9 -39 -36 -144 -60 -235 -23 -91 -50 -203 -58 -250 -66 -370 -40 -798
70 -1128 98 -294 263 -526 430 -604 59 -28 72 -30 142 -26 87 5 139 27 190 79
62 64 84 138 126 424 22 146 44 264 52 277 4 6 59 -92 123 -218 64 -127 130
-250 148 -274 109 -156 311 -364 508 -525 61 -49 167 -143 236 -210 69 -66
149 -133 179 -149 65 -35 58 -21 -23 45 -220 180 -537 626 -821 1154 -118 220
-271 561 -303 675 -15 54 -42 111 -53 109 -11 -1 -186 -233 -217 -286 -68
-121 -110 -295 -144 -608 -13 -116 -27 -206 -34 -214 -32 -34 -144 44 -203
142 -19 31 -54 105 -78 164 -96 230 -133 417 -141 704 -9 326 20 514 124 803
73 204 93 279 93 354 0 74 -28 127 -119 218 -148 150 -252 351 -372 722 -123
378 -156 468 -215 587 -57 116 -185 306 -331 490 -164 207 -225 320 -226 420
-1 74 23 111 91 143 l57 26 81 -17 c136 -28 474 -178 632 -280 38 -25 95 -68
126 -96 30 -28 74 -63 97 -78 44 -29 48 -29 406 -52 197 -13 234 -21 394 -81
628 -237 1299 -762 1771 -1387 218 -288 394 -588 491 -838 67 -172 106 -259
237 -535 56 -118 139 -298 185 -400 167 -374 229 -493 328 -626 58 -79 112
-110 297 -169 224 -72 498 -174 570 -212 71 -39 274 -173 434 -287 55 -40 160
-111 232 -158 123 -82 214 -164 214 -194 0 -11 -34 -14 -173 -14 -251 0 -492
-32 -669 -89 -235 -76 -312 -107 -331 -133 l-20 -27 21 -43 c12 -24 32 -68 45
-98 28 -64 129 -203 196 -270 55 -55 255 -207 375 -285 47 -31 195 -109 330
-175 135 -65 278 -140 318 -166 123 -79 320 -225 378 -279 53 -51 98 -85 110
-85 4 0 -11 37 -33 83 -31 66 -57 101 -135 182 -54 55 -135 144 -180 198 -152
177 -327 322 -552 455 -176 104 -270 166 -332 221 -47 41 -108 124 -108 146 0
7 29 17 68 23 38 7 109 23 158 38 134 39 247 61 374 74 136 14 258 39 393 80
80 25 97 34 97 51 0 25 -213 291 -277 345 -107 90 -314 255 -413 329 -136 101
-430 295 -500 330 -92 47 -379 175 -485 217 -106 42 -131 59 -175 123 -39 56
-398 795 -518 1065 -55 124 -132 306 -172 405 -102 253 -135 314 -322 594
-196 293 -369 503 -617 752 -314 314 -628 556 -1072 826 -203 124 -282 156
-569 229 -163 42 -189 45 -375 55 -228 12 -210 6 -352 125 -90 76 -265 179
-420 248 -242 107 -462 154 -598 126z"/>
<path d="M14096 9129 c-32 -5 -61 -11 -64 -13 -6 -7 33 -61 100 -137 41 -47
76 -104 119 -194 l62 -126 33 32 c43 42 64 86 74 160 8 56 7 62 -28 126 -29
52 -52 79 -101 115 -69 52 -79 54 -195 37z"/>
<path d="M585 4043 c-340 -44 -496 -132 -559 -317 -21 -61 -21 -69 -24 -1429
l-2 -1367 330 0 330 0 0 1302 c0 782 4 1298 9 1292 8 -8 231 -500 808 -1779
271 -601 283 -625 356 -698 104 -104 214 -144 422 -153 312 -15 495 76 612
302 22 43 141 302 263 574 122 272 260 578 306 680 45 102 173 385 283 630
110 244 203 446 208 447 4 2 8 -581 8 -1294 l0 -1298 328 -3 327 -2 -2 1382
-3 1383 -23 57 c-51 125 -161 204 -354 253 -211 53 -371 57 -525 12 -101 -29
-179 -75 -252 -148 -93 -93 -57 -18 -636 -1314 -424 -950 -509 -1135 -516
-1135 -3 0 -12 15 -20 33 -97 241 -989 2285 -1013 2322 -96 145 -240 234 -426
264 -63 10 -173 12 -235 4z"/>
<path d="M7640 2206 l0 -854 -477 -7 c-576 -9 -1028 -1 -1122 21 -88 19 -164
64 -198 116 l-28 42 -3 763 -2 763 -330 0 -330 0 2 -788 3 -788 38 -76 c98
-198 359 -353 708 -420 110 -20 144 -21 922 -25 l807 -4 2 -107 c3 -153 -1
-191 -23 -234 -38 -75 -151 -134 -299 -158 -41 -6 -445 -10 -1107 -10 l-1043
0 0 -221 0 -220 1113 4 c979 4 1123 6 1207 21 210 36 374 91 503 167 99 58
214 176 255 261 64 131 62 84 62 1406 l0 1202 -330 0 -330 0 0 -854z"/>
</g>
</svg>
