<?xml version="1.0" standalone="no"?>
<!DOCTYPE svg PUBLIC "-//W3C//DTD SVG 20010904//EN"
 "http://www.w3.org/TR/2001/REC-SVG-20010904/DTD/svg10.dtd">
<svg version="1.0" xmlns="http://www.w3.org/2000/svg"
 width="1428.000000pt" height="2000.000000pt" viewBox="0 0 1428.000000 2000.000000"
 preserveAspectRatio="xMidYMid meet">

<g transform="translate(0.000000,2000.000000) scale(0.100000,-0.100000)"
fill="#000000" stroke="none">
<path d="M2910 18660 l0 -1330 1100 0 1100 0 0 430 0 430 -630 0 -630 0 0 430
0 430 630 0 630 0 0 470 0 470 -1100 0 -1100 0 0 -1330z"/>
<path d="M6050 19519 l0 -472 328 -321 c180 -176 373 -365 430 -420 56 -55
102 -103 102 -108 0 -4 -193 -8 -430 -8 l-430 0 0 -430 0 -430 1105 0 1105 0
0 428 0 427 -440 430 -441 430 441 3 440 2 0 470 0 470 -1105 0 -1105 0 0
-471z"/>
<path d="M9170 19523 l-1 -468 438 -432 438 -432 -437 -1 -438 0 0 -430 0
-430 1105 0 1105 0 0 428 0 428 -432 424 c-238 233 -434 427 -436 432 -2 4
192 8 432 8 l436 0 0 470 0 470 -1105 0 -1105 0 0 -467z"/>
<path d="M10 16043 c0 -10 9 -115 20 -233 11 -118 36 -386 55 -595 19 -209 46
-499 60 -645 40 -428 75 -807 85 -925 5 -60 21 -229 35 -375 37 -404 74 -803
85 -925 5 -60 21 -229 35 -375 37 -404 74 -803 85 -925 5 -60 21 -229 35 -375
37 -404 74 -803 85 -925 5 -60 21 -229 35 -375 13 -146 36 -389 50 -540 33
-362 33 -360 50 -540 8 -85 19 -207 25 -270 5 -63 21 -236 35 -385 14 -148 32
-342 40 -430 20 -226 51 -555 80 -870 14 -148 32 -342 40 -430 8 -88 21 -232
29 -320 8 -88 24 -261 36 -385 11 -124 29 -319 40 -435 23 -251 52 -558 80
-865 11 -124 29 -319 40 -435 11 -115 29 -309 40 -430 33 -363 60 -648 80
-865 10 -113 26 -290 36 -395 9 -104 22 -195 28 -201 6 -6 67 -26 136 -44 69
-18 154 -41 190 -50 354 -96 1051 -284 1075 -290 17 -4 284 -76 595 -160 311
-84 579 -156 595 -160 17 -4 251 -67 520 -140 270 -73 504 -136 520 -140 17
-4 251 -67 520 -140 270 -73 504 -136 520 -140 17 -4 251 -67 520 -140 270
-73 514 -138 544 -146 58 -16 38 -19 391 76 190 52 1049 283 1075 290 17 4
284 76 595 160 311 84 579 156 595 160 17 4 251 67 520 140 270 73 504 136
520 140 17 4 251 67 520 140 623 168 547 147 1128 303 273 74 499 136 501 138
4 5 19 158 95 989 11 118 30 316 41 440 12 124 30 321 40 438 11 116 29 308
40 425 10 116 29 313 40 437 28 307 57 614 80 865 11 116 29 311 40 435 11
124 27 293 35 375 8 83 21 227 30 320 8 94 26 292 40 440 36 382 64 692 75
820 5 61 16 180 25 265 8 85 24 252 35 370 10 118 28 314 40 435 11 121 29
319 40 440 11 121 29 315 40 430 11 116 29 311 40 435 11 124 30 320 40 435
11 116 29 307 39 425 11 118 30 316 41 440 11 124 28 297 36 385 8 88 21 232
29 320 8 88 26 282 40 430 29 315 60 644 80 870 8 88 26 282 40 430 27 287 60
642 75 815 13 137 54 586 85 920 14 146 30 317 35 380 13 149 20 218 26 253
l6 27 -7136 0 c-6790 0 -7136 -1 -7136 -17z m12916 -1200 c-3 -21 -13 -117
-21 -213 -16 -185 -41 -472 -75 -860 -40 -453 -59 -677 -80 -915 -11 -132 -27
-312 -35 -400 -8 -88 -26 -293 -40 -455 -14 -162 -34 -394 -45 -515 -11 -121
-29 -328 -40 -460 -12 -132 -30 -337 -40 -455 -11 -118 -29 -323 -40 -455 -11
-132 -29 -339 -40 -460 -11 -121 -29 -326 -40 -455 -11 -129 -29 -336 -40
-460 -40 -451 -108 -1232 -160 -1830 -12 -129 -27 -307 -35 -395 -8 -88 -26
-293 -40 -455 -14 -162 -34 -394 -45 -515 -11 -121 -38 -429 -60 -685 -22
-256 -49 -564 -60 -685 -11 -121 -38 -431 -61 -690 -22 -258 -50 -582 -63
-720 l-22 -249 -44 -13 c-60 -18 -100 -29 -710 -193 -498 -134 -881 -237
-2083 -561 -287 -77 -765 -206 -1062 -286 -297 -80 -596 -160 -665 -179 -68
-18 -128 -30 -132 -26 -4 4 -9 408 -10 896 l-3 889 -870 257 c-478 142 -1300
385 -1825 540 -525 155 -956 283 -957 284 -3 2 -27 278 -93 1046 -11 129 -29
336 -40 460 -10 124 -28 331 -39 460 -12 129 -30 337 -41 462 -11 124 -20 245
-20 267 l0 41 905 0 904 0 5 -32 c3 -18 30 -334 60 -702 31 -368 59 -673 63
-676 5 -4 253 -69 553 -144 300 -76 730 -184 957 -242 226 -57 418 -104 427
-104 15 0 16 125 14 1423 l-3 1422 -2004 7 c-1102 5 -2006 9 -2007 11 -4 4
-24 231 -95 1122 -11 143 -26 332 -34 420 -11 123 -11 163 -2 171 7 6 235 104
507 217 588 244 2871 1194 3320 1381 l315 131 3 47 3 48 -2158 2 -2158 3 -27
215 c-116 924 -187 1523 -183 1531 4 5 885 9 2268 9 l2262 0 -3 880 -2 880
2896 0 2896 0 -6 -37z"/>
</g>
</svg>
