<?xml version="1.0" standalone="no"?>
<!DOCTYPE svg PUBLIC "-//W3C//DTD SVG 20010904//EN"
 "http://www.w3.org/TR/2001/REC-SVG-20010904/DTD/svg10.dtd">
<svg version="1.0" xmlns="http://www.w3.org/2000/svg"
 width="1418.000000pt" height="2000.000000pt" viewBox="0 0 1418.000000 2000.000000"
 preserveAspectRatio="xMidYMid meet">

<g transform="translate(0.000000,2000.000000) scale(0.100000,-0.100000)"
fill="#000000" stroke="none">
<path d="M1322 18653 l3 -1348 452 -3 453 -2 2 452 3 453 405 0 405 0 3 -452
2 -453 450 0 450 0 0 1350 0 1350 -450 0 -450 0 0 -445 0 -445 -410 0 -410 0
0 445 0 445 -455 0 -455 0 2 -1347z"/>
<path d="M4342 19553 l3 -448 398 -3 397 -2 0 -900 0 -900 450 0 450 0 0 900
0 900 395 0 395 0 0 450 0 450 -1245 0 -1245 0 2 -447z"/>
<path d="M7230 18650 l0 -1350 440 0 440 0 0 662 c0 509 3 659 12 650 6 -6
145 -217 307 -469 163 -251 301 -458 307 -460 6 -2 148 208 315 466 l304 470
5 -657 5 -657 450 0 450 0 3 1348 2 1347 -476 -2 -475 -3 -280 -460 c-154
-253 -284 -464 -288 -468 -5 -5 -87 121 -184 280 -96 158 -225 369 -285 468
l-110 180 -471 3 -471 2 0 -1350z"/>
<path d="M10710 18650 l0 -1350 1085 0 1085 0 -2 448 -3 447 -627 3 -628 2 0
900 0 900 -455 0 -455 0 0 -1350z"/>
<path d="M15 16028 c3 -24 12 -124 20 -223 9 -99 22 -252 30 -340 8 -88 24
-266 35 -395 11 -129 27 -305 35 -390 8 -85 19 -209 25 -275 10 -125 30 -347
55 -620 8 -88 26 -288 40 -445 14 -157 34 -385 45 -508 11 -122 29 -322 40
-445 10 -122 28 -323 39 -447 11 -124 30 -331 41 -460 11 -129 27 -305 35
-390 8 -85 19 -209 25 -275 11 -142 36 -418 50 -565 6 -58 17 -181 24 -275 8
-93 22 -244 30 -335 8 -91 24 -266 35 -390 11 -124 30 -328 41 -455 11 -126
29 -330 40 -453 11 -122 29 -322 40 -445 10 -122 29 -328 40 -457 11 -129 25
-280 30 -335 6 -55 17 -176 25 -270 32 -378 55 -629 64 -727 6 -57 15 -157 20
-223 6 -66 17 -194 25 -285 14 -155 28 -310 76 -850 49 -551 61 -679 80 -900
11 -129 27 -302 35 -385 8 -82 17 -186 20 -230 3 -44 10 -123 16 -175 5 -52
16 -171 24 -265 14 -159 33 -376 70 -795 25 -286 36 -385 43 -391 6 -4 221
-65 732 -205 25 -7 194 -54 375 -104 182 -51 344 -96 360 -100 39 -10 156 -43
450 -125 132 -37 254 -71 270 -75 17 -4 71 -19 120 -33 386 -107 887 -246
1070 -297 121 -34 245 -68 275 -76 30 -8 109 -30 175 -49 66 -19 269 -75 450
-126 182 -50 483 -133 670 -185 187 -52 412 -115 500 -139 88 -24 197 -55 243
-68 83 -24 83 -24 145 -6 71 20 402 113 480 133 29 8 160 44 292 81 132 37
294 82 360 100 66 18 293 81 505 140 212 59 439 122 505 140 66 18 293 81 505
140 212 59 439 122 505 140 66 18 293 81 505 140 519 144 560 156 595 165 17
4 203 56 415 115 517 144 560 156 595 165 82 21 469 130 471 133 3 3 18 152
44 447 11 129 28 309 36 400 8 91 22 242 29 335 8 94 19 213 24 265 6 52 13
131 16 175 3 44 12 148 20 230 8 83 24 256 35 385 11 129 29 334 40 455 11
121 31 348 45 505 14 157 32 355 40 440 8 85 17 189 20 230 4 41 13 143 20
225 8 83 24 256 35 385 11 129 30 336 41 460 11 124 29 326 40 450 11 124 27
299 35 390 8 91 19 217 24 280 6 63 16 187 25 275 20 210 43 471 55 620 6 66
17 190 25 275 8 85 24 261 35 390 33 371 59 671 76 850 8 91 22 242 29 335 8
94 19 213 24 265 6 52 13 131 16 175 3 44 12 148 20 230 8 83 24 256 35 385
11 129 29 334 40 455 11 121 31 348 45 505 14 157 32 355 40 440 8 85 17 189
20 230 4 41 13 143 20 225 8 83 24 256 35 385 20 223 34 386 80 907 12 126 28
302 36 393 18 195 49 547 69 785 8 94 17 194 21 223 l6 52 -7081 0 -7082 0 6
-42z m11521 -2950 c-6 -44 -11 -97 -46 -488 -11 -124 -27 -301 -35 -395 -9
-93 -20 -224 -25 -290 -6 -66 -16 -185 -24 -265 -8 -80 -18 -182 -22 -227 l-6
-83 -3395 0 -3395 0 6 -67 c3 -38 15 -167 26 -288 57 -646 93 -1046 110 -1250
6 -66 13 -137 16 -157 l6 -38 3234 0 c2581 0 3234 -3 3234 -12 0 -7 -5 -46
-10 -87 -5 -41 -15 -135 -20 -210 -6 -75 -17 -199 -25 -276 -8 -77 -17 -176
-20 -220 -3 -44 -12 -150 -20 -235 -19 -196 -43 -460 -55 -615 -6 -66 -17
-190 -25 -275 -21 -222 -44 -478 -60 -680 -8 -96 -17 -191 -20 -210 -3 -19
-12 -123 -20 -230 -8 -107 -17 -206 -20 -220 -2 -14 -9 -88 -15 -165 -6 -77
-17 -210 -25 -295 -23 -237 -45 -482 -55 -615 -6 -66 -17 -190 -25 -275 -17
-185 -42 -455 -60 -675 -8 -88 -14 -161 -15 -162 0 -2 -88 -29 -172 -52 -43
-11 -113 -31 -155 -42 -43 -12 -98 -27 -123 -34 -25 -8 -90 -25 -145 -40 -55
-15 -127 -35 -160 -45 -33 -10 -130 -37 -215 -60 -141 -38 -319 -88 -505 -139
-154 -43 -328 -92 -485 -135 -91 -25 -223 -62 -295 -82 -71 -20 -143 -40 -160
-44 -16 -4 -79 -22 -140 -38 -60 -17 -184 -51 -275 -76 -91 -25 -196 -55 -235
-66 -81 -24 -316 -89 -360 -100 -16 -4 -72 -19 -123 -33 l-94 -26 -161 45
c-89 25 -333 92 -542 150 -209 58 -540 150 -735 204 -195 55 -573 160 -840
234 -267 73 -658 182 -870 241 -212 59 -407 113 -434 121 -27 7 -52 17 -56 21
-4 4 -15 96 -24 203 -9 107 -23 265 -31 350 -9 85 -20 207 -25 270 -5 63 -16
189 -24 280 -15 160 -33 359 -76 850 -12 129 -30 330 -40 445 -10 116 -22 252
-26 303 l-7 92 894 -2 894 -3 7 -65 c4 -36 16 -173 28 -305 20 -224 32 -359
76 -852 l17 -191 396 -107 c218 -59 529 -143 691 -187 162 -44 426 -115 585
-158 329 -89 264 -87 505 -20 63 18 138 38 165 45 53 14 175 47 265 71 30 8
87 24 125 34 39 10 156 42 260 70 192 52 210 57 390 105 55 15 120 33 145 39
25 7 126 34 225 61 99 26 181 49 183 50 4 4 24 206 52 515 51 576 93 1054 120
1340 10 113 22 248 25 300 4 52 9 103 11 113 5 16 -146 17 -3065 17 l-3069 0
-6 28 c-3 15 -10 86 -16 157 -6 72 -20 227 -30 345 -11 118 -28 316 -39 440
-11 124 -29 327 -41 453 -11 125 -29 329 -40 455 -11 125 -29 324 -40 442 -10
118 -29 321 -40 450 -11 129 -27 307 -35 395 -8 88 -17 187 -20 220 -5 57 -18
200 -64 725 -11 124 -30 331 -41 460 -11 129 -25 280 -30 335 -12 115 -40 444
-40 463 0 9 897 12 4451 12 l4451 0 -6 -42z"/>
</g>
</svg>
